<svg xmlns="http://www.w3.org/2000/svg" viewBox="0 0 180 108" role="img" aria-labelledby="title">
  <title id="title">Chord Tulza bird mark</title>
  <ellipse cx="90" cy="54" rx="86" ry="48" fill="#080808"/>
  <ellipse cx="90" cy="54" rx="78" ry="40" fill="none" stroke="#f3f1ed" stroke-width="2"/>
  <path fill="#f3f1ed" d="M45 43c10 3 20 4 29 2-1-12 3-25 13-35 1 14 5 26 12 36 11 1 22 3 33 7l14 5-15 4c-12 3-23 3-34 1-6 12-16 22-30 29 7-12 11-24 10-34-10-1-20 2-31 8l8-12-9-11Z"/>
  <path d="M81 48c5 5 10 8 16 10m15-4 14 4" fill="none" stroke="#080808" stroke-width="2.5" stroke-linecap="round"/>
</svg>
